<svg xmlns="http://www.w3.org/2000/svg" version="1.1" xmlns:xlink="http://www.w3.org/1999/xlink" xmlns:svgjs="http://svgjs.com/svgjs" width="512" height="512" x="0" y="0" viewBox="0 0 64 64" style="enable-background:new 0 0 512 512" xml:space="preserve" class=""><g><path fill="#f28a2e" d="M16 11h20v5H16z" data-original="#f28a2e" class=""></path><path fill="#e8cdbf" d="M52.84 34.22a3.052 3.052 0 0 1-.04 1.44l-4.33 12.15a2.567 2.567 0 0 1-4.04.82l-7.74-7 .31-9.78 1.71.62a4.024 4.024 0 0 1 2.02 1.64L45 40.94l3-6-1-3-1.44-.48A2.279 2.279 0 0 1 44 29.3v-1.2a2.279 2.279 0 0 1 2.28-2.28 2.312 2.312 0 0 1 .72.12l-.72-4.59a1.709 1.709 0 0 1-.03-.31 1.639 1.639 0 0 1 1.12-1.55 1.616 1.616 0 0 1 2.08 1.12l.12.39L51 25.94z" data-original="#e8cdbf" class=""></path><path fill="#f28a2e" d="M60 11a9.934 9.934 0 0 1-1.55 5.34c-.09.15-.19.3-.29.44-3.09-3.87-7.7-6.49-11.36-8.12a17.537 17.537 0 0 1 1.76-3.48C50.5 6.17 53.75 7 59.16 7c.07.15.13.31.19.46A9.931 9.931 0 0 1 60 11z" data-original="#f28a2e" class=""></path><path fill="#f28a2e" d="M59.16 7c-5.41 0-8.66-.83-10.6-1.82C50.73 1.91 53 1.46 53 1.46c.16.05.32.11.47.16v.01a9.916 9.916 0 0 1 5.45 4.87c.09.17.17.33.24.5zM58.16 16.78c-.1.14-.19.27-.3.4a9.974 9.974 0 0 1-5.81 3.6l-.5.09c-1.31-4.99-3.73-7.08-5.99-7.88a27.1 27.1 0 0 1 1.24-4.33c3.66 1.63 8.27 4.25 11.36 8.12z" data-original="#f28a2e" class=""></path><path fill="#f28322" d="M51.55 20.87c-.16.03-.33.05-.5.07A8.982 8.982 0 0 1 50 21a3.24 3.24 0 0 1-.44-.02l-.11-.37a1.617 1.617 0 0 0-3.03-.27h-.01a7.791 7.791 0 0 1-1.24-.59 4.772 4.772 0 0 1-.43-.25 43.6 43.6 0 0 1 .82-6.51c2.26.8 4.68 2.89 5.99 7.88z" data-original="#f28322"></path><path fill="#f28a2e" d="M45.56 12.99a43.6 43.6 0 0 0-.82 6.51c-.16-.1-.33-.21-.48-.32a9.92 9.92 0 0 1-3.95-5.7c-.03-.16-.07-.32-.1-.48a8.454 8.454 0 0 1 5.35-.01z" data-original="#f28a2e" class=""></path><g fill="#bf4b21"><path d="M59.16 7c-1.389 0-2.631-.056-3.749-.154A17.758 17.758 0 0 1 51.93 11.4a25.081 25.081 0 0 1 6.23 5.384 9.977 9.977 0 0 0 1-9.78z" fill="#bf4b21" data-original="#bf4b21" class=""></path><path d="M59.16 7a9.947 9.947 0 0 0-2.425-3.386 16.96 16.96 0 0 1-1.324 3.232c1.118.098 2.36.154 3.749.154zM51.93 11.4a18.671 18.671 0 0 1-4.085 2.9 12.241 12.241 0 0 1 3.7 6.569 9.958 9.958 0 0 0 6.61-4.09A25.081 25.081 0 0 0 51.93 11.4z" fill="#bf4b21" data-original="#bf4b21" class=""></path><path d="M47.845 14.3a19.177 19.177 0 0 1-2.707 1.153 48.199 48.199 0 0 0-.4 4.046 9.007 9.007 0 0 0 1.67.84h.01a1.617 1.617 0 0 1 3.03.27l.11.37A3.24 3.24 0 0 0 50 21a8.764 8.764 0 0 0 1.55-.13 12.241 12.241 0 0 0-3.705-6.57z" fill="#bf4b21" data-original="#bf4b21" class=""></path><path d="M41.543 16.31a9.971 9.971 0 0 0 3.2 3.19c.082-1.47.222-2.806.4-4.046a19.387 19.387 0 0 1-3.6.856z" fill="#bf4b21" data-original="#bf4b21" class=""></path></g><path fill="#f28a2e" d="M36.51 46.98 36 63H16l-.03-1.02a3.9 3.9 0 0 0 .47-.2l2.05-1.03a.9.9 0 0 0 .05-1.59l-2.71-1.54v-.01l-.34-10.63.65-.78A8.005 8.005 0 0 0 18 41.07V30.82l2.06-.75 2.57 3a4.434 4.434 0 0 0 6.74 0l2.57-3 .02-.05 2.04.74v10.37a8.015 8.015 0 0 0 2.12 5.43z" data-original="#f28a2e" class=""></path><path fill="#bf4b21" d="m15.83 57.62 2.71 1.54a.9.9 0 0 1-.05 1.59l-2.05 1.03a3.9 3.9 0 0 1-.47.2L16 63h20l.51-16.02-.39-.42a7.931 7.931 0 0 1-2.12-5.4v-10.4l-2.04-.74-.02.05L30 32.335v26.233a1.932 1.932 0 0 1-1.932 1.932h-3.636a1.932 1.932 0 0 1-1.932-1.932 1.93 1.93 0 0 0-.763-1.538l-6.073-4.619.166 5.2z" data-original="#bf4b21" class=""></path><path fill="#e8cdbf" d="M18.54 59.16a.9.9 0 0 1-.05 1.59l-2.05 1.03a3.9 3.9 0 0 1-.47.2 4.389 4.389 0 0 1-4.16-.62L10 60 5.68 49.63a3.993 3.993 0 0 1 .07-3.23l5.55-11.9a4.033 4.033 0 0 1 2.26-2.07l1.41-.51.03.08.32 9.85-2.3 2.88a4.01 4.01 0 0 0-.86 2.89L13 56l2.83 1.61v.01z" data-original="#e8cdbf" class=""></path><path fill="#bf787e" d="m16.44 61.78 2.05-1.03a.9.9 0 0 0 .05-1.59l-2.71-1.54v-.01L13 56l-.84-8.38a4.01 4.01 0 0 1 .86-2.89l2.3-2.88a1.446 1.446 0 0 0-2.339-1.09l-.491.386a1.452 1.452 0 0 0-.484.7L9.972 48.2a1.432 1.432 0 0 0-.054.65l1.053 7.2a1.446 1.446 0 0 0 .647 1.006l3.14 2.024a1.445 1.445 0 0 1 .663 1.192c.008.475.024 1.132.058 1.859a4.316 4.316 0 0 0 .491-.147 3.9 3.9 0 0 0 .47-.204zM45.6 43.657l.124-4.172L45 40.94l-1.749-2.8 1.849 5.591a.261.261 0 0 0 .5-.074z" data-original="#bf787e" class=""></path><path fill="#e8cdbf" d="m29 28.94 2.96 1.08-.02.05-2.57 3a4.434 4.434 0 0 1-6.74 0l-2.57-3L23 29v-3.58a8.049 8.049 0 0 0 6 0z" data-original="#e8cdbf" class=""></path><path fill="#bf787e" d="M29 25.42a8.049 8.049 0 0 1-6 0V29a2.975 2.975 0 0 0 .184 1 2.983 2.983 0 0 1 5.633 0A2.992 2.992 0 0 0 29 29z" data-original="#bf787e" class=""></path><path fill="#e8cdbf" d="M34 15v3a8.262 8.262 0 0 1-.06 1A8.011 8.011 0 0 1 23 25.42 7.995 7.995 0 0 1 18.06 19a8.262 8.262 0 0 1-.06-1v-5.04a9.707 9.707 0 0 0 6.59-2.92c.02-.01.03-.03.04-.04h2.67a1.936 1.936 0 0 1 .21.27L28 11a1.861 1.861 0 0 1 3.05.63L32 14h2z" data-original="#e8cdbf" class=""></path><ellipse cx="22.5" cy="20" fill="#efb4ae" rx="1.5" ry="1" data-original="#efb4ae"></ellipse><ellipse cx="29.5" cy="20" fill="#efb4ae" rx="1.5" ry="1" data-original="#efb4ae"></ellipse><path fill="#f28a2e" d="M53 1.46s-2.27.45-4.44 3.72C45.74 3.75 45.66 2 45.66 2c.15-.07.3-.14.46-.21A9.819 9.819 0 0 1 50 1a10 10 0 0 1 2.13.23h.01a8.375 8.375 0 0 1 .86.23z" data-original="#f28a2e" class=""></path><path fill="#f28a2e" d="M48.56 5.18a17.537 17.537 0 0 0-1.76 3.48 41.687 41.687 0 0 0-5.76-2.07h-.01a3.372 3.372 0 0 1 .25-.45 9.759 9.759 0 0 1 3.91-3.89c.15-.09.31-.17.47-.25 0 0 .08 1.75 2.9 3.18z" data-original="#f28a2e" class=""></path><path fill="#f28a2e" d="M46.8 8.66a27.1 27.1 0 0 0-1.24 4.33 8.454 8.454 0 0 0-5.35.01 4.014 4.014 0 0 1-.09-.5A9.2 9.2 0 0 1 40 11a9.733 9.733 0 0 1 .83-3.97c.06-.15.13-.3.2-.44h.01a41.687 41.687 0 0 1 5.76 2.07z" data-original="#f28a2e" class=""></path><path fill="#515665" d="M36 10H15a1 1 0 0 1-1-1V5a1 1 0 0 1 1-1h21a1 1 0 0 1 1 1v4a1 1 0 0 1-1 1z" data-original="#515665"></path><path fill="#363944" d="M36 4h-1.5v2.609a1 1 0 0 1-1 1H14V9a1 1 0 0 0 1 1h21a1 1 0 0 0 1-1V5a1 1 0 0 0-1-1zM37 31.85l-.31 9.78-.18 5.35-.39-.42A8.015 8.015 0 0 1 34 41.13V30.76z" data-original="#363944" class=""></path><path fill="#e8cdbf" d="M35 15a2.006 2.006 0 0 1 2 2 2.015 2.015 0 0 1-2 2h-1.06a8.262 8.262 0 0 0 .06-1v-3z" data-original="#e8cdbf" class=""></path><path fill="#fbb253" d="M36 10v2a2.006 2.006 0 0 1-2 2h-2l-.95-2.37A1.861 1.861 0 0 0 28 11l-.49-.73a1.936 1.936 0 0 0-.21-.27z" data-original="#fbb253"></path><path fill="#d99c9c" d="m32 14-.95-2.37A1.861 1.861 0 0 0 28 11l-.49-.73a1.936 1.936 0 0 0-.21-.27h-2.67A9.693 9.693 0 0 1 18 12.96V18a8.262 8.262 0 0 0 .06 1 8.054 8.054 0 0 0 2.28 4.66c.043.043.092.08.136.123a10.169 10.169 0 0 1-.371-1.87c-.03-.33-.045-.66-.045-1v-4.308a.835.835 0 0 1 .662-.827 6.578 6.578 0 0 0 3.952-2.451.678.678 0 0 1 .81-.186l.85.382a.678.678 0 0 0 .666-.067 1.98 1.98 0 0 1 2.748 1.087l.524 1.762a.85.85 0 0 0 .815.608.851.851 0 0 1 .851.851v3.149c0 .34-.015.67-.045 1a10.209 10.209 0 0 1-.353 1.848A8 8 0 0 0 33.94 19a8.262 8.262 0 0 0 .06-1v-4z" data-original="#d99c9c"></path><path fill="#fbb253" d="M33.97 4H17.41a9.178 9.178 0 0 1 6.8-3H26l2 1a5.759 5.759 0 0 1 1.42-.18A5.847 5.847 0 0 1 33.97 4zM24.63 10c-.01.01-.02.03-.04.04A9.707 9.707 0 0 1 18 12.96c-.32.03-.65.04-1 .04h-2v-3z" data-original="#fbb253"></path><path fill="#e8cdbf" d="M18.06 19H17a2.015 2.015 0 0 1-2-2 2.006 2.006 0 0 1 2-2h1v3a8.262 8.262 0 0 0 .06 1z" data-original="#e8cdbf" class=""></path><path fill="#363944" d="M18 30.82v10.25a8.005 8.005 0 0 1-1.86 5.13l-.65.78-.17-5.13L15 32l-.03-.08z" data-original="#363944" class=""></path><path fill="#bf787e" d="M44.43 48.63a2.567 2.567 0 0 0 4.04-.82l4.33-12.15a3.052 3.052 0 0 0 .04-1.44L51 25.94 49.57 21l-.12-.39a1.612 1.612 0 0 0-2.013-1.135L51 34l-2 6-2.35 4.71a1.159 1.159 0 0 1-1.768.376l-5.641-4.616a1.562 1.562 0 0 0-2.551 1.16z" data-original="#bf787e" class=""></path><ellipse cx="22" cy="16.5" fill="#515665" rx="1" ry="1.5" data-original="#515665"></ellipse><ellipse cx="30" cy="16.5" fill="#515665" rx="1" ry="1.5" data-original="#515665"></ellipse><path fill="#363944" d="M31 46h-2v-5a1 1 0 0 0-2 0v5h-2v-5a1 1 0 0 0-2 0v6a1 1 0 0 0 1 1h3v4a1 1 0 0 0 2 0v-4h2a1 1 0 0 0 0-2z" data-original="#363944" class=""></path><path fill="#cdd8e3" d="M43 22.5c-1.689 0-2.615-.335-2.913-1.054-.353-.852.465-1.705.559-1.8a.5.5 0 0 1 .708.707c-.187.19-.409.553-.342.711s.562.436 1.988.436a.5.5 0 0 1 0 1zM57 22.5a.5.5 0 0 1 0-1c1.426 0 1.921-.274 1.988-.436s-.155-.521-.342-.711a.5.5 0 0 1 .708-.707c.094.095.912.948.559 1.8-.298.719-1.224 1.054-2.913 1.054z" data-original="#cdd8e3"></path><path fill="#d99c9c" d="M26.282 22.544c-1.549 0-3.217-.477-3.217-1.523a.5.5 0 0 1 1 0 3.541 3.541 0 0 0 2.217.523 3.268 3.268 0 0 0 2.224-.556.483.483 0 0 1 .5-.483.512.512 0 0 1 .5.516c-.006 1.046-1.674 1.523-3.224 1.523z" data-original="#d99c9c"></path><path fill="#515665" d="M48.76 5.83a18.014 18.014 0 0 0-1.3 2.57 30.558 30.558 0 0 1 10.99 7.94c-.09.15-.19.3-.29.44s-.19.27-.3.4a.764.764 0 0 1-.09-.09c-2.88-3.6-7.15-6.12-10.68-7.73a26.028 26.028 0 0 0-.94 3.33c.17.07.34.15.52.23 2.53 1.29 4.33 3.92 5.37 7.82 0 .01.01.03.01.04l-.5.09c-.16.03-.33.05-.5.07-.96-3.58-2.58-5.97-4.82-7.12-.1-.05-.19-.09-.29-.13a46.12 46.12 0 0 0-.7 5.84.439.439 0 0 1-.07.22 4.772 4.772 0 0 1-.43-.25c-.16-.1-.33-.21-.48-.32a46.09 46.09 0 0 1 .72-5.84 8.081 8.081 0 0 0-4.59.13.113.113 0 0 1-.08.01c-.03-.16-.07-.32-.1-.48a4.014 4.014 0 0 1-.09-.5 8.962 8.962 0 0 1 5.07-.14 27.238 27.238 0 0 1 .97-3.41 39.593 39.593 0 0 0-5.25-1.88.2.2 0 0 1-.08-.04c.06-.15.13-.3.2-.44a3.372 3.372 0 0 1 .25-.45 42.445 42.445 0 0 1 5.25 1.85 17.881 17.881 0 0 1 1.31-2.63 4.886 4.886 0 0 1-2.65-3.11c.15-.09.31-.17.47-.25s.3-.14.46-.21a.566.566 0 0 1 .03.18c.01.04.17 1.35 2.25 2.55a9.512 9.512 0 0 1 3.73-3.29h.01a8.375 8.375 0 0 1 .86.23c.16.05.32.11.47.16v.01a.5.5 0 0 1-.37.32c-.05.01-1.87.46-3.76 3.04 1.88.82 4.85 1.49 9.58 1.51.09.17.17.33.24.5.07.15.13.31.19.46a.406.406 0 0 1-.19.04c-5.09 0-8.33-.74-10.4-1.67z" data-original="#515665"></path></g></svg>