<svg xmlns="http://www.w3.org/2000/svg" version="1.1" xmlns:xlink="http://www.w3.org/1999/xlink" xmlns:svgjs="http://svgjs.com/svgjs" width="512" height="512" x="0" y="0" viewBox="0 0 64 64" style="enable-background:new 0 0 512 512" xml:space="preserve" class=""><g><g data-name="23-ping pong"><circle cx="8" cy="24" r="4" fill="#ebf5f7" data-original="#ebf5f7" class=""></circle><path fill="#ff4848" d="M52 47v3H41v-3z" data-original="#8949f5" class=""></path><path fill="#fdfeff" d="M52 39.06V47H41v-7c0-4.42 4.68-7 8-7l.09-.1A7.93 7.93 0 0 1 52 39.06z" data-original="#fdfeff" class=""></path><path fill="#e1eaf2" d="M13.36 38.36a8.1 8.1 0 0 0-1.3 1.67L12 40v-.94a7.93 7.93 0 0 1 2.91-6.16l.09.1a8.931 8.931 0 0 1 6.92 3.57 7.809 7.809 0 0 0-8.56 1.79z" data-original="#e1eaf2" class=""></path><path fill="#fdfeff" d="M27.06 30.12a9.279 9.279 0 0 0 2.93 3.28c-.11 2.02-1.08 3.6-2.24 3.6 0 0-3.75-2-3.75-6a2.629 2.629 0 0 1 .04-.49c.35-1.17.84-1.71 1.44-1.84l2.52-.56V30zM38.52 28.67c.6.13 1.09.67 1.44 1.84A2.629 2.629 0 0 1 40 31c0 4-3.75 6-3.75 6-1.16 0-2.13-1.58-2.24-3.6a9.279 9.279 0 0 0 2.93-3.28L36 30v-1.89z" data-original="#fdfeff" class=""></path><path fill="#ff4848" d="m21.26 53.75 3.76-.82 1.45-1.46 1.46-1.45.03.03L24 54v.87a2 2 0 0 0 .97 1.71l2.69 1.62a2.009 2.009 0 0 0 2.44-.3l1.59-2.13.31.23 9.73 6.31a5.68 5.68 0 0 0 2.27.67V63H18l1.84-9.18a6.929 6.929 0 0 0 1.42-.07z" data-original="#2357d1" class=""></path><path fill="#ff4848" d="M19.01 31.12 24 30.5l.04.01A2.629 2.629 0 0 0 24 31c0 4 3.75 6 3.75 6 1.16 0 2.13-1.58 2.24-3.6a3.667 3.667 0 0 0 4.02 0c.11 2.02 1.08 3.6 2.24 3.6 0 0 3.75-2 3.75-6a2.629 2.629 0 0 0-.04-.49l.04-.01 4.99.62a7.83 7.83 0 0 1 4.1 1.78L49 33c-3.32 0-8 2.58-8 7v10h2v5.59L30.27 49.6a2 2 0 0 0-2.26.39l-.05.06-.03-.03.82-3.76a7.763 7.763 0 0 0 .08-1.34c-.07-2.28-1.25-4-3.08-5.83a11.122 11.122 0 0 0-3.83-2.52A8.931 8.931 0 0 0 15 33l-.09-.1a7.865 7.865 0 0 1 4.1-1.78z" data-original="#2b8ffc" class=""></path><path fill="#ff4848" d="M24 13h-2V9h20v4h-2z" data-original="#8949f5" class=""></path><path fill="#ffcdbe" d="M43 16v1a3 3 0 0 1-3 3l-.06-.01A8.1 8.1 0 0 0 40 19v-5h1a2.006 2.006 0 0 1 2 2zM24 20a3 3 0 0 1-3-3v-1a2.006 2.006 0 0 1 2-2h1v5a8.1 8.1 0 0 0 .06.99z" data-original="#ffcdbe" class=""></path><path fill="#333940" d="M41 9H23a8 8 0 0 1 8-8h2a8 8 0 0 1 8 8z" data-original="#333940" class=""></path><path fill="#ffcdbe" d="M13.41 50a9.587 9.587 0 0 0 .68.75c1.81 1.81 3.51 2.98 5.75 3.07L18 63l-5-5v-8z" data-original="#ffcdbe" class=""></path><path fill="#ffdecf" d="M40 14v5a8.1 8.1 0 0 1-.06.99 8.006 8.006 0 0 1-13.6 4.67A7.984 7.984 0 0 1 24 19v-6h16z" data-original="#ffdecf" class=""></path><path fill="#ffbeaa" d="M35.06 26.388a7.823 7.823 0 0 1-.957.329c-.017.005-.035.008-.053.012a7.858 7.858 0 0 1-.861.175c-.074.011-.148.022-.224.031A7.871 7.871 0 0 1 32 27a7.967 7.967 0 0 1-3.967-1.059L28 26v4l-.94.12a9.279 9.279 0 0 0 2.93 3.28 3.667 3.667 0 0 0 4.02 0 9.279 9.279 0 0 0 2.93-3.28L36 30v-4l-.03-.06a7.916 7.916 0 0 1-.91.448z" data-original="#ffbeaa" class=""></path><path fill="#ff4848" d="M13.41 50H12v-2.12A10.561 10.561 0 0 0 13.41 50z" data-original="#6f3ff3" class=""></path><path fill="#333940" d="M23 13h1v1h-1zM40 13h1v1h-1z" data-original="#333940" class=""></path><path fill="#e9b789" d="m26.48 51.47.72-.72c1.94 1.94 3.971 2.5 5.261 3.8S32.3 57.3 32.3 57.3s-1.46 1.46-2.751.16-1.86-3.321-3.8-5.261z" data-original="#e9b789" class=""></path><path fill="#e9b789" d="M28.83 44.92a7.763 7.763 0 0 1-.08 1.34l-.82 3.76-.73.73-.72.72h-.01l-.72.73-.73.73-3.76.82a7.763 7.763 0 0 1-1.34.08v-.17l8.74-8.74z" data-original="#e9b789" class=""></path><path fill="#555a66" d="M28.83 44.92h-.17l-8.74 8.74v.17c-2.28-.07-4-1.25-5.83-3.08-3.641-3.65-4.291-8.83-.731-12.391s8.741-2.91 12.391.731c1.83 1.83 3.01 3.55 3.08 5.83z" data-original="#555a66" class=""></path><path fill="#ffcdbe" d="M30.27 49.6 43 55.59V50h8v6.46a7.925 7.925 0 0 1-.57 2.97A5.669 5.669 0 0 1 45.16 63h-.71c-.15 0-.3-.01-.45-.02a5.68 5.68 0 0 1-2.27-.67L32 56l-.31-.23-1.59 2.13a2.009 2.009 0 0 1-2.44.3l-2.69-1.62a2 2 0 0 1-.97-1.71V54l3.96-3.95.05-.06a2 2 0 0 1 2.26-.39z" data-original="#ffcdbe" class=""></path><path fill="#d8e0e8" d="M8 26a3.989 3.989 0 0 1-3.859-3 4 4 0 1 0 7.718 0A3.989 3.989 0 0 1 8 26z" data-original="#d8e0e8" class=""></path><path fill="#ff4848" d="M41 9h-1v1a1 1 0 0 1-1 1H25a1 1 0 0 1-1-1V9h-2v4h20V9z" data-original="#6f3ff3" class=""></path><path fill="#ffbeaa" d="M42 17.5v-.833A1.862 1.862 0 0 0 40 15v4c0 .124-.017.247-.023.373A2.088 2.088 0 0 0 42 17.5zM24 15a1.862 1.862 0 0 0-2 1.667v.833a2.088 2.088 0 0 0 2.023 1.873C24.016 19.247 24 19.124 24 19z" data-original="#ffbeaa" class=""></path><path fill="#ffcdbe" d="M40 15v-2H24v6a7.984 7.984 0 0 0 2.34 5.66 7.838 7.838 0 0 0 1.69 1.28A7.954 7.954 0 0 0 32 27a8.035 8.035 0 0 0 1-.067 7.973 7.973 0 0 1-2.97-.993 7.838 7.838 0 0 1-1.69-1.28A7.984 7.984 0 0 1 26 19v-2a2 2 0 0 1 2-2z" data-original="#ffcdbe" class=""></path><path fill="#ffe8de" d="M38 15v4a8.1 8.1 0 0 1-.06.99A8.008 8.008 0 0 1 31 26.933 8.035 8.035 0 0 0 32 27a8.018 8.018 0 0 0 7.94-7.01A8.1 8.1 0 0 0 40 19v-4z" data-original="#ffe8de" class=""></path><path fill="#d33737" d="M44 62.98a5.68 5.68 0 0 1-2.27-.67L32 56l-.31-.23-1.59 2.13a2.009 2.009 0 0 1-2.44.3l-2.69-1.62a2 2 0 0 1-.743-.807L24 56v.87a2 2 0 0 0 .97 1.71l2.69 1.62a2.009 2.009 0 0 0 2.44-.3l.027-.036A2.172 2.172 0 0 0 32.3 59.3a2.918 2.918 0 0 0 .515-.772L39.71 63H44zM21.26 55.75l2.776-.6a1.952 1.952 0 0 1-.036-.28V54l3.96-3.95-.03-.03-1.46 1.45-1.45 1.46-3.76.82a6.929 6.929 0 0 1-1.42.07l-.394 1.966c.157.016.311.039.474.044a7.763 7.763 0 0 0 1.34-.08z" data-original="#1d47a8" class=""></path><path fill="#fbb39f" d="M29.21 29.892a.994.994 0 0 1 1.2-1.166 13.027 13.027 0 0 0 5.59-.437V26l-.03-.06a7.916 7.916 0 0 1-.91.448 7.823 7.823 0 0 1-.957.329c-.017.005-.035.008-.053.012a7.858 7.858 0 0 1-.861.175c-.074.011-.148.022-.224.031A7.871 7.871 0 0 1 32 27a7.967 7.967 0 0 1-3.967-1.059L28 26v4l-.94.12a9.279 9.279 0 0 0 2.93 3.28A3.91 3.91 0 0 0 32 34a3.508 3.508 0 0 0 .573-.051c-2.173-.262-3.034-2.407-3.363-4.057zM45 57a1 1 0 0 0 1-1v-1a2 2 0 0 1 2-2h3v-3h-8v5a2 2 0 0 0 2 2zM42.985 60.656l-8.459-5.639a2 2 0 0 0-2.671.415l-.133.362L32 56l9.73 6.31a5.68 5.68 0 0 0 2.27.67c.15.01.3.02.45.02h.71a5.668 5.668 0 0 0 3.214-1h-.952a8 8 0 0 1-4.437-1.344z" data-original="#fbb39f" class=""></path><path fill="#ffdecf" d="m30.49 55.223.6-.312a2 2 0 0 1 2.117-.459l.794.3a2.735 2.735 0 0 0-1.148-3.935L30.27 49.6a2 2 0 0 0-2.26.39l-.05.06-3.334 3.326 2.933 1.76a3 3 0 0 0 2.931.087z" data-original="#ffdecf" class=""></path><path fill="#ff4848" d="M48 48a3.963 3.963 0 0 1-2.62-1H41v3h11v-2z" data-original="#6f3ff3" class=""></path><path fill="#e1eaf2" d="M44 44v-5c0-3.22 4.53-4.494 6.3-4.869a7.914 7.914 0 0 0-1.21-1.231L49 33c-3.32 0-8 2.58-8 7v7h4.38A3.972 3.972 0 0 1 44 44z" data-original="#e1eaf2" class=""></path><path fill="#fbb39f" d="M19.84 53.82c-2.24-.09-3.94-1.26-5.75-3.07a9.587 9.587 0 0 1-.68-.75H13v3.153a11.126 11.126 0 0 0 3.142 2.394 2.014 2.014 0 0 1 1.078 2.533l-1.129 3.011L18 63z" data-original="#fbb39f" class=""></path><path fill="#e1eaf2" d="M27.06 30.12 28 30v-1.89l-.974.216V29a1.768 1.768 0 0 0-1.7 2.224 3.665 3.665 0 0 0 1.786 2.6 1 1 0 0 1 .45 1.52 1.764 1.764 0 0 1-1.206.628A7.9 7.9 0 0 0 27.75 37c1.16 0 2.13-1.58 2.24-3.6a9.279 9.279 0 0 1-2.93-3.28zM36.465 35.339a1 1 0 0 1 .451-1.52 3.667 3.667 0 0 0 1.786-2.6A1.768 1.768 0 0 0 37 29v-.668l-1-.222V30l.94.12a9.279 9.279 0 0 1-2.93 3.28c.11 2.02 1.08 3.6 2.24 3.6a7.953 7.953 0 0 0 1.4-1.035 1.762 1.762 0 0 1-1.185-.626z" data-original="#e1eaf2" class=""></path><path fill="#fbb39f" d="M31.5 33.96a3.5 3.5 0 0 0 .5.04 3.91 3.91 0 0 0 2.01-.6 9.279 9.279 0 0 0 2.93-3.28L36 30s-1.782 3.558-4.5 3.96z" data-original="#fbb39f" class=""></path><path fill="#d33737" d="M40.426 36.976A5.9 5.9 0 0 0 39 40.863V52h2v2.649l2 .941V50h-2V40c0-3.352 2.692-5.643 5.441-6.555l-.273-.088a11.463 11.463 0 0 0-5.742 3.619z" data-original="#2864f0" class=""></path><path fill="#ff4848" d="M24 31v-.5l-4.99.62a7.865 7.865 0 0 0-4.1 1.78l.09.1a8.267 8.267 0 0 1 2.545.449A28.618 28.618 0 0 1 24 32.042zM49.09 32.9a7.83 7.83 0 0 0-4.1-1.78L40 30.5v1.542a28.542 28.542 0 0 1 6.441 1.4A8.248 8.248 0 0 1 49 33z" data-original="#2cb5ff" class=""></path><path fill="#d33737" d="m24.1 32.034-.1.008V35a2 2 0 0 0 2 2h1.75a7.658 7.658 0 0 1-3.65-4.966zM34.01 33.4a3.667 3.667 0 0 1-4.02 0c-.11 2.02-1.08 3.6-2.24 3.6h1.014a2 2 0 0 0 1.789-1.106 1.618 1.618 0 0 1 2.894 0A2 2 0 0 0 35.236 37h1.014c-1.16 0-2.13-1.58-2.24-3.6zM36.25 37H38a2 2 0 0 0 2-2v-2.958l-.1-.008A7.658 7.658 0 0 1 36.25 37z" data-original="#2864f0" class=""></path><path fill="#c7874e" d="m26.48 51.47.72-.72.73-.73.017-.075c-.068-.072-.125-.144-.2-.215l-.73.73-3.76.82a7.344 7.344 0 0 1-1.035.075l-2.3 2.3v.17a7.763 7.763 0 0 0 1.34-.08l3.76-.82.73-.73.72-.73z" data-original="#c7874e" class=""></path><path fill="#333940" d="M22.225 51.355c-.1 0-.205.007-.3.005-2.28-.07-4-1.25-5.83-3.08-3-3.012-3.964-7.063-2.211-10.389-.176.15-.351.3-.52.468C9.8 41.92 10.449 47.1 14.09 50.75c1.83 1.83 3.55 3.01 5.83 3.08v-.17z" data-original="#333940" class=""></path><path fill="#2a2e33" d="M33 4h-2a8 8 0 0 0-7.414 5h16.828A8 8 0 0 0 33 4z" data-original="#2a2e33" class=""></path><path fill="#fbb39f" d="M33 18.857C33 20.514 32.552 21 32 21s-1-.486-1-2.143S31.447 15 32 15s1 2.2 1 3.857z" data-original="#fbb39f" class=""></path><path fill="#f2987e" d="M29 22h6s0 2-3 2-3-2-3-2z" data-original="#f2987e" class=""></path><ellipse cx="36" cy="15" fill="#333940" rx="1" ry="2" data-original="#333940" class=""></ellipse><ellipse cx="27.999" cy="15" fill="#333940" rx="1" ry="2" data-original="#333940" class=""></ellipse><rect width="8" height="2" x="25" y="9" fill="#ff4848" rx="1" data-original="#9863fc" class=""></rect><rect width="4" height="2" x="34" y="9" fill="#ff4848" rx="1" data-original="#9863fc" class=""></rect><ellipse cx="24" cy="42" fill="#f6fafd" rx="1.65" ry="2.297" transform="rotate(-45 24.011 42.02)" data-original="#f6fafd" class=""></ellipse><ellipse cx="24.682" cy="45.708" fill="#f6fafd" rx=".825" ry="1.148" transform="rotate(-45 24.693 45.73)" data-original="#f6fafd" class=""></ellipse><ellipse cx="9.682" cy="22.708" fill="#f6fafd" rx=".825" ry="1.148" transform="rotate(-45 9.687 22.719)" data-original="#f6fafd" class=""></ellipse><ellipse cx="39.427" cy="10.208" fill="#f6fafd" rx=".413" ry=".574" transform="rotate(-45 39.446 10.213)" data-original="#f6fafd" class=""></ellipse><g fill="#2cb5ff"><rect width="2" height="6" x="4" y="12" rx="1" fill="#ff4848" data-original="#2cb5ff" class=""></rect><rect width="2" height="3" x="4" y="8" rx="1" fill="#ff4848" data-original="#2cb5ff" class=""></rect><rect width="2" height="6" x="7" y="12" rx="1" fill="#ff4848" data-original="#2cb5ff" class=""></rect><rect width="2" height="3" x="7" y="8" rx="1" fill="#ff4848" data-original="#2cb5ff" class=""></rect><rect width="2" height="6" x="10" y="12" rx="1" fill="#ff4848" data-original="#2cb5ff" class=""></rect><rect width="2" height="3" x="10" y="8" rx="1" fill="#ff4848" data-original="#2cb5ff" class=""></rect></g><circle cx="32" cy="37" r="1" fill="#f6fafd" data-original="#f6fafd" class=""></circle><circle cx="32" cy="41" r="1" fill="#f6fafd" data-original="#f6fafd" class=""></circle></g></g></svg>